HIERARCHY
ROOT joint_Root
{
	OFFSET 0.0 0.0 0.0
	CHANNELS 6 Xposition Yposition Zposition Zrotation Xrotation Yrotation 
	JOINT Hips
	{
		OFFSET 4.5925 91.4895 -427.239
		CHANNELS 6 Xposition Yposition Zposition Zrotation Xrotation Yrotation 
		JOINT Spine
		{
			OFFSET 15.7357 0.0 0.0
			CHANNELS 6 Xposition Yposition Zposition Zrotation Xrotation Yrotation 
			JOINT Chest
			{
				OFFSET 8.98455 -0.406207 0.0
				CHANNELS 6 Xposition Yposition Zposition Zrotation Xrotation Yrotation 
				JOINT Neck
				{
					OFFSET 16.3773 0.0 0.0
					CHANNELS 6 Xposition Yposition Zposition Zrotation Xrotation Yrotation 
					JOINT Head
					{
						OFFSET 6.45672 0.0 0.0
						CHANNELS 6 Xposition Yposition Zposition Zrotation Xrotation Yrotation 
						End Site
						{
							OFFSET 0.0 0.0 0.0
						}
					}
				}
				JOINT Shoulder_L
				{
					OFFSET 12.9942 -0.242716 4.98039
					CHANNELS 6 Xposition Yposition Zposition Zrotation Xrotation Yrotation 
					JOINT UpperArm_L
					{
						OFFSET 5.34809 0.0 0.0
						CHANNELS 6 Xposition Yposition Zposition Zrotation Xrotation Yrotation 
						JOINT LowerArm_L
						{
							OFFSET 24.3286 1.87007e-05 0.0
							CHANNELS 6 Xposition Yposition Zposition Zrotation Xrotation Yrotation 
							JOINT Hand_L
							{
								OFFSET 22.2916 0.0 0.0
								CHANNELS 6 Xposition Yposition Zposition Zrotation Xrotation Yrotation 
								End Site
								{
									OFFSET 0.0 0.0 0.0
								}
							}
						}
					}
				}
				JOINT Shoulder_R
				{
					OFFSET 12.9945 -0.242716 -4.98039
					CHANNELS 6 Xposition Yposition Zposition Zrotation Xrotation Yrotation 
					JOINT UpperArm_R
					{
						OFFSET -5.34813 0.0 0.0
						CHANNELS 6 Xposition Yposition Zposition Zrotation Xrotation Yrotation 
						JOINT LowerArm_R
						{
							OFFSET -24.3289 0.000322201 0.0
							CHANNELS 6 Xposition Yposition Zposition Zrotation Xrotation Yrotation 
							JOINT Hand_R
							{
								OFFSET -22.2915 -0.000108084 0.0
								CHANNELS 6 Xposition Yposition Zposition Zrotation Xrotation Yrotation 
								End Site
								{
									OFFSET 0.0 0.0 0.0
								}
							}
						}
					}
				}
			}
		}
		JOINT UpperLeg_L
		{
			OFFSET -2.19248 -6.46944 0.0
			CHANNELS 6 Xposition Yposition Zposition Zrotation Xrotation Yrotation 
			JOINT LowerLeg_L
			{
				OFFSET 39.0811 0.0 -1.23785e-05
				CHANNELS 6 Xposition Yposition Zposition Zrotation Xrotation Yrotation 
				JOINT Foot_L
				{
					OFFSET 40.9854 0.0 -1.26872e-05
					CHANNELS 6 Xposition Yposition Zposition Zrotation Xrotation Yrotation 
					JOINT Toes_L
					{
						OFFSET 11.7543 0.0 0.0
						CHANNELS 6 Xposition Yposition Zposition Zrotation Xrotation Yrotation 
						End Site
						{
							OFFSET 0.0 0.0 0.0
						}
					}
				}
			}
		}
		JOINT UpperLeg_R
		{
			OFFSET -2.19251 6.46944 0.0
			CHANNELS 6 Xposition Yposition Zposition Zrotation Xrotation Yrotation 
			JOINT LowerLeg_R
			{
				OFFSET -39.0811 -0.00228153 -0.0401928
				CHANNELS 6 Xposition Yposition Zposition Zrotation Xrotation Yrotation 
				JOINT Foot_R
				{
					OFFSET -40.9854 0.0 0.0
					CHANNELS 6 Xposition Yposition Zposition Zrotation Xrotation Yrotation 
					JOINT Toes_R
					{
						OFFSET -11.7543 0.0 0.0
						CHANNELS 6 Xposition Yposition Zposition Zrotation Xrotation Yrotation 
						End Site
						{
							OFFSET 0.0 0.0 0.0
						}
					}
				}
			}
		}
	}
}
MOTION
Frames:	4
Frame Time:	0.0333333
0.000000 0.000000 0.000000 0.000000 0.000000 -0.000000 0.542278 92.494800 -2.144360 89.756900 -6.474410 4.278520 15.735700 0.000005 -0.000001 75.719800 85.888100 -72.253600 8.984550 -0.406207 -0.000000 0.281967 -2.254080 6.933990 16.377300 -0.000001 -0.000001 6.829560 -2.052250 -2.219720 6.456720 -0.000001 -0.000000 3.437230 -3.558890 2.770110 12.994200 -0.242716 4.980390 -83.692600 -12.669600 -63.253800 5.348090 -0.000007 -0.000001 -36.073500 -66.325900 -81.581700 24.328600 0.000019 0.000005 7.004060 9.674820 -36.168000 22.291600 -0.000001 0.000005 16.175700 5.423450 -3.716930 12.994500 -0.242716 -4.980390 87.587300 9.506370 -75.688100 -5.348130 -0.000001 -0.000004 -54.160100 21.151900 -2.362560 -24.328900 0.000322 -0.000009 1.055990 2.369590 -24.049800 -22.291500 -0.000108 -0.000004 18.976900 5.461240 -5.046360 -2.192480 -6.469440 -0.000000 -176.610000 -16.472000 -1.576460 39.081100 -0.000007 -0.000012 -0.076908 0.203992 20.657100 40.985400 -0.000006 -0.000013 0.801605 6.851970 -64.670100 11.754300 -0.000000 0.000003 -0.000080 -0.000848 -16.610200 -2.192510 6.469440 -0.000001 174.243000 24.231800 178.695000 -39.081100 -0.002282 -0.040193 -0.080253 0.228887 20.058900 -40.985400 0.000008 0.000006 2.404850 22.479800 -64.138100 -11.754300 -0.000006 -0.000006 -0.001289 -0.019428 -17.363200
0.000000 0.000000 0.000000 0.000000 0.000000 -0.000000 0.485999 92.488700 -2.194590 89.775000 -6.212010 4.253500 15.735700 0.000005 -0.000001 75.958300 85.904000 -72.683100 8.984550 -0.406207 -0.000000 0.253066 -2.201560 6.551510 16.377300 -0.000001 -0.000001 6.593320 -2.002130 -2.465180 6.456720 -0.000001 -0.000000 3.686150 -3.507130 2.873790 12.994200 -0.242716 4.980390 -83.872500 -11.997800 -62.685900 5.348090 -0.000007 -0.000001 -39.236500 -64.987700 -84.351400 24.328600 0.000019 0.000005 7.362290 9.555570 -37.896300 22.291600 -0.000001 0.000005 17.120300 5.413180 -3.371570 12.994500 -0.242716 -4.980390 87.532300 9.597480 -75.507300 -5.348130 -0.000001 -0.000004 -54.816000 21.122200 -2.629520 -24.328900 0.000322 -0.000009 1.075050 2.440040 -23.807100 -22.291500 -0.000108 -0.000004 19.099100 5.457890 -4.924000 -2.192480 -6.469440 -0.000000 -176.600000 -16.403200 -1.699110 39.081100 -0.000007 -0.000012 -0.073779 0.194984 20.726000 40.985400 -0.000006 -0.000013 0.815110 7.095730 -64.647900 11.754300 -0.000000 0.000003 -0.000081 -0.000862 -16.610800 -2.192510 6.469440 -0.000001 174.267000 24.414300 178.629000 -39.081100 -0.002282 -0.040193 -0.080939 0.229602 20.152400 -40.985400 0.000008 0.000006 2.448850 22.368200 -64.190300 -11.754300 -0.000006 -0.000006 -0.001413 -0.021111 -17.431600
0.000000 0.000000 0.000000 0.000000 0.000000 -0.000000 0.413857 92.476800 -2.210370 89.813900 -5.905290 4.286230 15.735700 0.000005 -0.000001 76.806200 85.910100 -73.742100 8.984550 -0.406207 -0.000000 0.260920 -2.066940 6.129320 16.377300 -0.000001 -0.000001 6.371830 -2.040470 -2.730500 6.456720 -0.000001 -0.000000 3.799610 -3.566530 2.747220 12.994200 -0.242716 4.980390 -84.156100 -11.235800 -62.287400 5.348090 -0.000007 -0.000001 -42.301600 -62.668700 -85.555500 24.328600 0.000019 0.000005 7.213810 8.085410 -41.989500 22.291600 -0.000001 0.000005 18.583400 5.406700 -3.155790 12.994500 -0.242716 -4.980390 87.561300 9.437340 -75.439800 -5.348130 -0.000001 -0.000004 -56.076800 20.765000 -2.642590 -24.328900 0.000322 -0.000009 0.901412 2.077400 -23.486800 -22.291500 -0.000108 -0.000004 19.078900 5.453180 -4.753750 -2.192480 -6.469440 -0.000000 -176.588000 -16.269000 -1.758420 39.081100 -0.000007 -0.000012 -0.074298 0.195517 20.807200 40.985400 -0.000006 -0.000013 0.804385 7.270490 -64.641300 11.754300 -0.000000 0.000003 -0.000072 -0.000775 -16.607500 -2.192510 6.469440 -0.000001 174.255000 24.554700 178.634000 -39.081100 -0.002282 -0.040193 -0.083317 0.234298 20.293300 -40.985400 0.000008 0.000006 2.500400 22.163600 -64.300700 -11.754300 -0.000006 -0.000006 -0.001664 -0.024431 -17.566500
0.000000 0.000000 0.000000 0.000000 0.000000 -0.000000 0.304702 92.466600 -2.218420 89.871800 -5.529160 4.321910 15.735700 0.000005 -0.000001 78.222800 85.914600 -75.372900 8.984550 -0.406207 -0.000000 0.285570 -1.853110 5.700980 16.377300 -0.000001 -0.000001 6.018690 -2.107350 -2.938100 6.456720 -0.000001 -0.000000 3.952210 -3.634980 2.435180 12.994200 -0.242716 4.980390 -84.540300 -10.434000 -62.176800 5.348090 -0.000007 -0.000001 -43.629400 -59.420900 -83.443500 24.328600 0.000019 0.000005 6.993350 6.203840 -48.628300 22.291600 -0.000001 0.000005 20.460500 5.397450 -2.855040 12.994500 -0.242716 -4.980390 87.600200 9.259800 -75.402000 -5.348130 -0.000001 -0.000004 -57.315700 21.033500 -2.653540 -24.328900 0.000322 -0.000009 0.613023 1.448890 -22.968700 -22.291500 -0.000108 -0.000004 18.999800 5.448750 -4.594820 -2.192480 -6.469440 -0.000000 -176.592000 -15.864800 -1.800780 39.081100 -0.000007 -0.000012 -0.076329 0.200460 20.845300 40.985400 -0.000006 -0.000013 0.725966 7.294460 -64.608400 11.754300 -0.000000 0.000003 -0.000092 -0.000955 -16.614200 -2.192510 6.469440 -0.000001 174.299000 24.372400 178.634000 -39.081100 -0.002282 -0.040193 -0.082042 0.229111 20.434600 -40.985400 0.000008 0.000006 2.509930 21.615900 -64.421300 -11.754300 -0.000006 -0.000006 -0.001604 -0.023642 -17.534500
